<svg xmlns="http://www.w3.org/2000/svg" viewBox="0 0 64 64">
  <defs>
    <linearGradient id="bg" x1="0" x2="0" y1="0" y2="1">
      <stop offset="0" stop-color="#ff9d35"/>
      <stop offset="1" stop-color="#df741f"/>
    </linearGradient>
    <filter id="shadow" x="-20%" y="-20%" width="140%" height="140%">
      <feDropShadow dx="1.3" dy="2" stdDeviation="1.1" flood-color="#3b210c" flood-opacity=".5"/>
    </filter>
  </defs>
  <rect x="1" y="1" width="62" height="62" rx="3" fill="url(#bg)" stroke="#6a4124" stroke-width="1.5"/>
  <g filter="url(#shadow)">
    <path d="M16 36 29 28l18 3 6 11-14 8-19-4Z" fill="#f4b43b" stroke="#76511b" stroke-width="1.2"/>
    <path d="M20 42 39 46 53 38v10L39 57 20 53Z" fill="#d89126" stroke="#76511b" stroke-width=".8"/>
    <circle cx="24" cy="34" r="8" fill="#ffd33f" stroke="#a96500" stroke-width="1.3"/>
    <circle cx="38" cy="31" r="9" fill="#ffcf32" stroke="#a96500" stroke-width="1.3"/>
    <circle cx="47" cy="42" r="8" fill="#ffc928" stroke="#a96500" stroke-width="1.3"/>
    <circle cx="17" cy="46" r="7" fill="#ffd94e" stroke="#a96500" stroke-width="1.3"/>
    <circle cx="31" cy="47" r="8" fill="#ffc928" stroke="#a96500" stroke-width="1.3"/>
    <path d="M34 27c5 2 8 7 7 12" stroke="#fff19a" stroke-width="2.4" stroke-linecap="round" opacity=".75"/>
    <path d="M17 18h32v6H17Z" fill="#fff0a3" opacity=".9"/>
  </g>
  <text x="58" y="58" text-anchor="end" font-family="Arial Black, Arial, sans-serif" font-size="16" font-weight="900" fill="#fff" stroke="#1f2937" stroke-width="2.8" paint-order="stroke">5</text>
</svg>
