<svg xmlns="http://www.w3.org/2000/svg" viewBox="0 0 64 64">
  <defs>
    <linearGradient id="bg" x1="6" y1="6" x2="58" y2="58" gradientUnits="userSpaceOnUse"><stop offset="0" stop-color="#74d4e6"/><stop offset="1" stop-color="#389bc0"/></linearGradient>
    <linearGradient id="lid" x1="17" y1="21" x2="47" y2="35" gradientUnits="userSpaceOnUse"><stop offset="0" stop-color="#ffe17a"/><stop offset="1" stop-color="#d09222"/></linearGradient>
    <linearGradient id="box" x1="15" y1="27" x2="52" y2="52" gradientUnits="userSpaceOnUse"><stop offset="0" stop-color="#5b80d8"/><stop offset="1" stop-color="#313f8c"/></linearGradient>
    <filter id="shadow" x="-20%" y="-20%" width="140%" height="150%"><feDropShadow dx="0" dy="2" stdDeviation="1.4" flood-color="#12344f" flood-opacity=".4"/></filter>
  </defs>
  <rect x="5" y="5" width="54" height="54" rx="3" fill="url(#bg)" stroke="#29384b" stroke-width="1.5"/>
  <text x="32" y="17" text-anchor="middle" font-family="Arial, sans-serif" font-size="12" font-weight="900" fill="#f7fbff" stroke="#1f2937" stroke-width="1.8" paint-order="stroke">Lv.5</text>
  <g filter="url(#shadow)">
    <path d="M15 29 29 21 49 25 54 35 39 44 18 39Z" fill="url(#lid)" stroke="#6e4b14" stroke-width="1"/>
    <path d="M18 34 39 39 54 31 54 48 38 57 18 51Z" fill="url(#box)" stroke="#202b5c" stroke-width="1.2"/>
    <path d="M18 34 39 39 39 57 18 51Z" fill="#435bb9" opacity=".95"/>
    <path d="M39 39 54 31 54 48 39 57Z" fill="#293378" opacity=".95"/>
    <path d="M26 28 34 30 28 36 20 34Z" fill="#fff4a3" opacity=".8"/>
    <path d="M34 30 43 28 37 35 28 36Z" fill="#f6bf35"/>
    <path d="M25 40 31 42 31 52 25 50Z" fill="#ffc83d"/>
    <path d="M43 41 49 38 49 48 43 52Z" fill="#f5b332"/>
    <path d="M31 24 36 25 29 33 24 32Z" fill="#f7fbff" opacity=".5"/>
  </g>
</svg>
