<svg xmlns="http://www.w3.org/2000/svg" viewBox="0 0 64 64">
  <rect x="6" y="6" width="52" height="52" rx="3" fill="#a961d8" stroke="#2f3440" stroke-width="1.5"/>
  <g filter="drop-shadow(0 2px 1px rgba(0,0,0,.35))">
    <path d="M15 37 28 29 47 32 53 43 39 51 19 47Z" fill="#f4b43b" stroke="#76511b" stroke-width="1"/>
    <path d="M19 43 39 47 53 39 53 50 39 58 19 54Z" fill="#d89126"/>
    <path d="M17 30c3-10 11-15 17-12 6 3 6 12 0 18-6 5-15 4-17-6Z" fill="#ffd5a3" stroke="#a8692b" stroke-width="1"/>
    <path d="M28 34c3-10 12-16 18-12 6 4 4 14-3 19-7 4-15 2-15-7Z" fill="#ffc88d" stroke="#a8692b" stroke-width="1"/>
    <path d="M10 38c5-9 15-10 19-4 4 7-2 15-11 15-7 0-12-5-8-11Z" fill="#ffddb3" stroke="#a8692b" stroke-width="1"/>
    <path d="M25 44c4-7 13-8 17-3s-1 13-9 14c-7 1-12-5-8-11Z" fill="#ffd3a0" stroke="#a8692b" stroke-width="1"/>
  </g>
  <text x="52" y="55" text-anchor="middle" font-family="Arial, sans-serif" font-size="14" font-weight="900" fill="#fff" stroke="#1f2937" stroke-width="2" paint-order="stroke">1</text>
</svg>
