<svg xmlns="http://www.w3.org/2000/svg" viewBox="0 0 64 64">
  <rect width="64" height="64" rx="4" fill="#f28a2f"/>
  <path d="M17 14 49 9l6 36-34 9-8-33Z" fill="#ffc247" stroke="#9a5b11" stroke-width="2"/>
  <path d="M20 18 46 14l4 25-27 7-6-24Z" fill="#fff4c2" opacity=".9"/>
  <path d="M24 28 38 18l5 17-16 6Z" fill="#f4a62a" stroke="#9a5b11" stroke-width="2"/>
  <circle cx="34" cy="30" r="6" fill="#fff" stroke="#9a5b11" stroke-width="2"/>
  <path d="M34 21v5M34 34v5M25 30h5M38 30h5M28 24l4 4M40 24l-4 4M28 36l4-4M40 36l-4-4" stroke="#9a5b11" stroke-width="2" stroke-linecap="round"/>
  <path d="M18 47h26" stroke="#7b4510" stroke-width="3" stroke-linecap="round"/>
</svg>
