<svg xmlns="http://www.w3.org/2000/svg" viewBox="0 0 96 96">
  <rect width="96" height="96" fill="#f59e0b"/>
  <rect x="18" y="54" width="52" height="18" rx="3" fill="#0f172a" opacity=".35"/>
  <g transform="rotate(-12 48 45)">
    <rect x="22" y="30" width="56" height="32" rx="5" fill="#facc15" stroke="#fff7ad" stroke-width="3"/>
    <rect x="27" y="35" width="46" height="22" rx="3" fill="#fde047"/>
    <rect x="34" y="40" width="17" height="11" rx="2" fill="#fff7ed"/>
    <path d="M58 38h11v4H58zM58 46h11v4H58z" fill="#b45309"/>
    <circle cx="30" cy="46" r="3" fill="#f59e0b"/>
    <circle cx="75" cy="46" r="3" fill="#f59e0b"/>
  </g>
  <g transform="rotate(-4 46 50)">
    <rect x="18" y="38" width="56" height="32" rx="5" fill="#fbbf24" stroke="#fff7ad" stroke-width="3"/>
    <rect x="25" y="44" width="19" height="12" rx="2" fill="#fff7ed"/>
    <path d="M52 44h12v4H52zM52 52h12v4H52z" fill="#b45309"/>
  </g>
</svg>
