<svg xmlns="http://www.w3.org/2000/svg" viewBox="0 0 64 64">
  <rect x="6" y="6" width="52" height="52" rx="3" fill="#a961d8" stroke="#2f3440" stroke-width="1.5"/>
  <g filter="drop-shadow(0 2px 1px rgba(0,0,0,.35))">
    <path d="M17 36 29 28 49 32 54 42 40 50 20 46Z" fill="#f3b83a" stroke="#6b4811" stroke-width="1"/>
    <path d="M20 42 40 46 54 38 54 49 40 57 20 53Z" fill="#d79527"/>
    <path d="M17 22 28 16 42 19 31 26Z" fill="#d8e6f2" stroke="#607386" stroke-width="1"/>
    <path d="M30 27 43 21 55 25 42 32Z" fill="#c6d5e3" stroke="#607386" stroke-width="1"/>
    <path d="M10 33 22 27 34 30 22 37Z" fill="#cbd9e7" stroke="#607386" stroke-width="1"/>
    <path d="M16 45 28 39 40 42 28 49Z" fill="#b5c5d5" stroke="#607386" stroke-width="1"/>
    <path d="M30 43 42 37 54 40 42 47Z" fill="#dce8f3" stroke="#607386" stroke-width="1"/>
  </g>
</svg>
