<svg xmlns="http://www.w3.org/2000/svg" viewBox="0 0 64 64">
  <defs>
    <linearGradient id="bg" x1="0" x2="0" y1="0" y2="1">
      <stop offset="0" stop-color="#c99dff"/>
      <stop offset=".55" stop-color="#a348eb"/>
      <stop offset="1" stop-color="#20c6a3"/>
    </linearGradient>
    <linearGradient id="crystal" x1="0" x2="1" y1="0" y2="1">
      <stop offset="0" stop-color="#fff2bf"/>
      <stop offset=".38" stop-color="#ffbd3f"/>
      <stop offset="1" stop-color="#d56517"/>
    </linearGradient>
    <linearGradient id="crystalDark" x1="0" x2="1" y1="0" y2="1">
      <stop offset="0" stop-color="#f49b29"/>
      <stop offset="1" stop-color="#a84513"/>
    </linearGradient>
    <filter id="shadow" x="-20%" y="-20%" width="140%" height="140%">
      <feDropShadow dx="1.3" dy="2" stdDeviation="1.1" flood-color="#23143e" flood-opacity=".5"/>
    </filter>
  </defs>
  <rect x="1" y="1" width="62" height="62" rx="3" fill="url(#bg)" stroke="#5b3a84" stroke-width="1.5"/>
  <g filter="url(#shadow)">
    <path d="M18 30 30 16l17 5 3 18-16 11-16-6Z" fill="url(#crystal)" stroke="#7c3d12" stroke-width="2"/>
    <path d="M30 16 28 34 18 30Z" fill="#ffe2a0" opacity=".95"/>
    <path d="M30 16 47 21 38 32 28 34Z" fill="#ffc64f"/>
    <path d="M28 34 38 32 50 39 34 50Z" fill="url(#crystalDark)"/>
    <path d="M18 30 28 34 34 50 18 44Z" fill="#ef8b22"/>
    <path d="M47 21 50 39 38 32Z" fill="#b84a16"/>
    <path d="M25 26c5-3 10-5 16-5" stroke="#fff2be" stroke-width="3" stroke-linecap="round" opacity=".8"/>
  </g>
</svg>
