<svg xmlns="http://www.w3.org/2000/svg" viewBox="0 0 64 64">
  <rect width="64" height="64" rx="4" fill="#26b76c"/>
  <path d="M11 48 30 14l22 34c-13 6-28 6-41 0Z" fill="#91ca58" stroke="#437a2e" stroke-width="2"/>
  <path d="M20 43c3-9 12-15 25-17 3 8 1 15-5 19-6 5-13 4-20-2Z" fill="#f2d650" stroke="#a37d11" stroke-width="2"/>
  <path d="M27 22c2-5 7-8 13-7 7 1 10 7 7 13-2 3-5 5-8 7-3 2-4 3-4 7" fill="none" stroke="#7bd9ff" stroke-width="7" stroke-linecap="round"/>
  <path d="M28 22c2-5 7-8 12-7 7 1 10 7 6 12-2 3-5 5-8 7-3 2-4 4-4 7" fill="none" stroke="#3475d4" stroke-width="4" stroke-linecap="round"/>
  <circle cx="34" cy="50" r="3.5" fill="#3475d4"/>
  <rect x="41" y="32" width="10" height="8" rx="1.5" fill="#65c3f4" stroke="#176899" stroke-width="2"/>
</svg>
