<svg xmlns="http://www.w3.org/2000/svg" viewBox="0 0 64 64">
  <defs>
    <linearGradient id="bg" x1="0" x2="0" y1="0" y2="1">
      <stop offset="0" stop-color="#ff9a34"/>
      <stop offset="1" stop-color="#df741f"/>
    </linearGradient>
    <linearGradient id="ticket" x1="0" x2="1" y1="0" y2="1">
      <stop offset="0" stop-color="#f8f7ff"/>
      <stop offset=".45" stop-color="#b9a8ff"/>
      <stop offset="1" stop-color="#6747c9"/>
    </linearGradient>
    <filter id="shadow" x="-20%" y="-20%" width="140%" height="140%">
      <feDropShadow dx="1.4" dy="2" stdDeviation="1.1" flood-color="#3b210c" flood-opacity=".45"/>
    </filter>
  </defs>
  <rect x="1" y="1" width="62" height="62" rx="3" fill="url(#bg)" stroke="#6a4124" stroke-width="1.5"/>
  <g filter="url(#shadow)" transform="rotate(4 32 31)">
    <path d="M12 22h38l3 23H16Z" fill="#5b38bd" stroke="#3a276f" stroke-width="2"/>
    <path d="M15 17h37l-4 24H10Z" fill="url(#ticket)" stroke="#3a276f" stroke-width="2"/>
    <path d="M18 21h26M17 27h18M40 31h6" stroke="#ffffff" stroke-width="2.2" stroke-linecap="round" opacity=".9"/>
    <circle cx="33" cy="32" r="10" fill="#eaf7ff" stroke="#3a276f" stroke-width="2"/>
    <path d="M25 37c2-6 6-9 11-9 4 0 7 2 9 6-3 4-7 6-12 6-3 0-6-1-8-3Z" fill="#ff8f3a" stroke="#7a3716" stroke-width="1.5"/>
    <circle cx="34" cy="29" r="4" fill="#232a3a"/>
    <path d="M24 23 16 39" stroke="#ffdc61" stroke-width="3" stroke-linecap="round"/>
  </g>
  <text x="58" y="58" text-anchor="end" font-family="Arial Black, Arial, sans-serif" font-size="16" font-weight="900" fill="#fff" stroke="#1f2937" stroke-width="2.8" paint-order="stroke">1.0K</text>
</svg>
