<svg xmlns="http://www.w3.org/2000/svg" viewBox="0 0 64 64">
  <rect width="64" height="64" rx="4" fill="#238fc4"/>
  <ellipse cx="32" cy="50" rx="24" ry="6" fill="#123f5a" opacity=".25"/>
  <g transform="translate(5 22) scale(.58)">
    <rect x="4" y="15" width="38" height="28" rx="5" fill="#c8832f" stroke="#754513" stroke-width="3"/>
    <path d="M7 12h32l6 10H1Z" fill="#f5be69" stroke="#754513" stroke-width="3"/>
    <path d="M12 10c6-6 18-6 25 0" fill="none" stroke="#ffdba1" stroke-width="5" stroke-linecap="round"/>
    <path d="M15 18h18M10 28h27" stroke="#ffdf9b" stroke-width="4" stroke-linecap="round"/>
  </g>
  <g transform="translate(24 16) scale(.56)">
    <rect x="4" y="18" width="40" height="26" rx="5" fill="#bf832d" stroke="#67410f" stroke-width="3"/>
    <path d="M8 15h34l5 10H3Z" fill="#e4edf5" stroke="#526879" stroke-width="3"/>
    <path d="M13 13h18l-5 11H8Z" fill="#b9c8d9" stroke="#526879" stroke-width="3"/>
    <path d="M26 24h22l-7 13H20Z" fill="#98aabe" stroke="#526879" stroke-width="3"/>
    <path d="M17 31h24" stroke="#e6b044" stroke-width="4" stroke-linecap="round"/>
  </g>
  <g transform="translate(34 27) scale(.55)">
    <rect x="3" y="16" width="40" height="26" rx="5" fill="#c8832f" stroke="#754513" stroke-width="3"/>
    <path d="M7 13h34l5 10H2Z" fill="#f0b23b" stroke="#754513" stroke-width="3"/>
    <circle cx="16" cy="30" r="8" fill="#ffd83d" stroke="#c47a00" stroke-width="3"/>
    <circle cx="28" cy="27" r="8" fill="#ffd83d" stroke="#c47a00" stroke-width="3"/>
    <circle cx="30" cy="37" r="8" fill="#ffc20d" stroke="#c47a00" stroke-width="3"/>
  </g>
</svg>
