<svg xmlns="http://www.w3.org/2000/svg" viewBox="0 0 64 64">
  <defs>
    <linearGradient id="bg" x1="0" x2="0" y1="0" y2="1">
      <stop offset="0" stop-color="#c79bff"/>
      <stop offset=".55" stop-color="#9f46e8"/>
      <stop offset="1" stop-color="#29c8a5"/>
    </linearGradient>
    <linearGradient id="box" x1="0" x2="1" y1="0" y2="1">
      <stop offset="0" stop-color="#fff7c2"/>
      <stop offset=".5" stop-color="#ffd95a"/>
      <stop offset="1" stop-color="#d38320"/>
    </linearGradient>
    <filter id="shadow" x="-20%" y="-20%" width="140%" height="140%">
      <feDropShadow dx="1.3" dy="2" stdDeviation="1.1" flood-color="#24133c" flood-opacity=".5"/>
    </filter>
  </defs>
  <rect x="1" y="1" width="62" height="62" rx="3" fill="url(#bg)" stroke="#5b3a84" stroke-width="1.5"/>
  <g filter="url(#shadow)">
    <path d="M15 27h38v29H15Z" fill="url(#box)" stroke="#8a4d18" stroke-width="2"/>
    <path d="M12 21h44v12H12Z" fill="#ffe680" stroke="#8a4d18" stroke-width="2"/>
    <path d="M31 21h8v35h-8Z" fill="#f2a7d8" stroke="#8a4d18" stroke-width="1.2"/>
    <path d="M12 31h44" stroke="#b7671f" stroke-width="2"/>
    <path d="M34 21c-5-7-14-8-17-3-2 4 4 7 17 3Z" fill="#ffe680" stroke="#8a4d18" stroke-width="2"/>
    <path d="M36 21c6-7 15-8 18-3 2 4-4 7-18 3Z" fill="#ffe680" stroke="#8a4d18" stroke-width="2"/>
    <path d="M24 38h9M42 38h7" stroke="#fff4b0" stroke-width="2.2" stroke-linecap="round"/>
  </g>
  <text x="43" y="54" font-family="Arial Black, Arial, sans-serif" font-size="18" font-weight="900" fill="#47e35f" stroke="#0b7c25" stroke-width=".8">S1</text>
</svg>
