<svg xmlns="http://www.w3.org/2000/svg" viewBox="0 0 64 64">
  <defs>
    <linearGradient id="bg" x1="8" y1="8" x2="56" y2="56" gradientUnits="userSpaceOnUse">
      <stop offset="0" stop-color="#38b8e8"/>
      <stop offset="1" stop-color="#197fc7"/>
    </linearGradient>
    <linearGradient id="top" x1="20" y1="18" x2="44" y2="38" gradientUnits="userSpaceOnUse">
      <stop offset="0" stop-color="#eaf7ff"/>
      <stop offset="0.45" stop-color="#9fd7ff"/>
      <stop offset="1" stop-color="#5b8fd6"/>
    </linearGradient>
    <linearGradient id="side" x1="29" y1="28" x2="47" y2="48" gradientUnits="userSpaceOnUse">
      <stop offset="0" stop-color="#7bb8ec"/>
      <stop offset="1" stop-color="#385fb7"/>
    </linearGradient>
    <filter id="shadow" x="-20%" y="-20%" width="140%" height="150%">
      <feDropShadow dx="0" dy="2" stdDeviation="1.6" flood-color="#123a5c" flood-opacity="0.35"/>
    </filter>
  </defs>
  <rect x="5" y="5" width="54" height="54" rx="3" fill="url(#bg)"/>
  <g filter="url(#shadow)">
    <path d="M18 35 30 21 47 19 54 28 42 43 23 44Z" fill="url(#top)"/>
    <path d="M23 44 42 43 54 28 49 41 36 51 17 49Z" fill="url(#side)"/>
    <path d="M18 35 23 44 17 49 13 39Z" fill="#69b6ef"/>
    <path d="M30 21 35 31 54 28 47 19Z" fill="#d9f2ff" opacity="0.8"/>
    <path d="M25 39 38 24" stroke="#f7fbff" stroke-width="2.4" stroke-linecap="round" opacity="0.75"/>
    <path d="M34 43 47 29" stroke="#213f95" stroke-width="2" stroke-linecap="round" opacity="0.35"/>
    <path d="M18 35 30 21 47 19 54 28 42 43 23 44Z" fill="none" stroke="#244c95" stroke-width="1.5" opacity="0.65"/>
  </g>
</svg>
