<svg xmlns="http://www.w3.org/2000/svg" viewBox="0 0 64 64">
  <defs>
    <linearGradient id="bg" x1="0" x2="1" y1="0" y2="1">
      <stop offset="0" stop-color="#20b66f"/>
      <stop offset="1" stop-color="#0b8f57"/>
    </linearGradient>
    <linearGradient id="coin" x1="0" x2="1" y1="0" y2="1">
      <stop offset="0" stop-color="#f5f0ff"/>
      <stop offset="1" stop-color="#7b67d8"/>
    </linearGradient>
  </defs>
  <rect x="4" y="4" width="56" height="56" rx="6" fill="url(#bg)" stroke="#2b3448" stroke-width="2"/>
  <circle cx="32" cy="32" r="21" fill="url(#coin)" stroke="#efeaff" stroke-width="3"/>
  <circle cx="32" cy="27" r="6" fill="#ffffff"/>
  <circle cx="22" cy="31" r="4.5" fill="#ffffff" opacity=".92"/>
  <circle cx="42" cy="31" r="4.5" fill="#ffffff" opacity=".92"/>
  <path d="M19 45c2.1-7.2 8.1-11 13-11s10.9 3.8 13 11z" fill="#ffffff"/>
  <path d="M13 43c1.3-4.6 4.9-7.2 8.4-7.2 1.8 0 3.5.6 5 1.8-3.1 1.4-5.5 3.6-7.1 6.4z" fill="#ffffff" opacity=".85"/>
  <path d="M37.6 37.6c1.5-1.2 3.2-1.8 5-1.8 3.5 0 7.1 2.6 8.4 7.2h-6.3c-1.6-2.8-4-5-7.1-6.4z" fill="#ffffff" opacity=".85"/>
</svg>
