<svg xmlns="http://www.w3.org/2000/svg" viewBox="0 0 64 64">
  <rect width="64" height="64" rx="4" fill="#e9862c"/>
  <ellipse cx="32" cy="52" rx="22" ry="5" fill="#6b330f" opacity=".22"/>
  <path d="M14 42c6-15 18-26 36-33-4 17-15 30-30 39Z" fill="#ffd45a" stroke="#8a4b10" stroke-width="3" stroke-linejoin="round"/>
  <path d="M20 43c6-12 16-21 29-28-4 12-13 23-25 30Z" fill="#f6a721" opacity=".85"/>
  <path d="M18 45 8 55l10-2 5-7Z" fill="#e36f1f" stroke="#8a4b10" stroke-width="3" stroke-linejoin="round"/>
  <path d="M29 25c6-3 13-5 20-6" stroke="#fff2a8" stroke-width="4" stroke-linecap="round"/>
  <path d="M21 48c9-4 18-11 26-22" stroke="#7b3f13" stroke-width="2.5" stroke-linecap="round" opacity=".7"/>
  <circle cx="25" cy="38" r="8" fill="#f5c15d" stroke="#7f4213" stroke-width="3"/>
  <path d="M19 38h12M25 32v12" stroke="#7f4213" stroke-width="3" stroke-linecap="round"/>
  <text x="52" y="57" text-anchor="middle" font-family="Arial, sans-serif" font-size="11" font-weight="900" fill="#fff" stroke="#1f2937" stroke-width="2" paint-order="stroke">1</text>
</svg>
